<svg width="311" height="60" viewBox="0 0 311 60" fill="none" xmlns="http://www.w3.org/2000/svg">
<rect x="0.5" y="3.14737" width="43" height="43" rx="6.5" fill="#6363DB"/>
<rect x="0.5" y="3.14737" width="43" height="43" rx="6.5" stroke="#4F4FB9"/>
<path d="M25.54 32.1474L24.5 28.7474H19.3L18.26 32.1474H15L20.04 17.8074H23.74L28.8 32.1474H25.54ZM22.74 22.8874C22.6733 22.6607 22.5867 22.374 22.48 22.0274C22.3733 21.6807 22.2667 21.3274 22.16 20.9674C22.0533 20.6074 21.9667 20.294 21.9 20.0274C21.8333 20.294 21.74 20.6274 21.62 21.0274C21.5133 21.414 21.4067 21.7874 21.3 22.1474C21.2067 22.494 21.1333 22.7407 21.08 22.8874L20.06 26.2074H23.78L22.74 22.8874Z" fill="white"/>
<rect x="36.8821" y="15.4891" width="43" height="43" rx="6.5" transform="rotate(-1.83156 36.8821 15.4891)" fill="#FFCF62"/>
<rect x="36.8821" y="15.4891" width="43" height="43" rx="6.5" transform="rotate(-1.83156 36.8821 15.4891)" stroke="#691B0A"/>
<path d="M64.9023 36.3242C64.9535 37.9234 64.7031 39.2721 64.1513 40.3703C63.6127 41.4681 62.8125 42.3074 61.7505 42.8883C60.7019 43.4688 59.4312 43.7829 57.9387 43.8306L53.8808 43.9604L53.4243 29.6877L57.8421 29.5464C59.268 29.5008 60.4959 29.7283 61.5258 30.229C62.569 30.7293 63.3804 31.4904 63.96 32.5124C64.5392 33.5211 64.8533 34.7917 64.9023 36.3242ZM61.5466 36.5116C61.5129 35.4588 61.3586 34.5966 61.0837 33.925C60.8088 33.2535 60.413 32.7659 59.8963 32.4622C59.3926 32.1448 58.7676 31.9981 58.0213 32.0219L56.742 32.0629L57.0392 41.3581L58.0387 41.3261C59.2914 41.2861 60.1983 40.8635 60.7596 40.0585C61.3341 39.2531 61.5965 38.0708 61.5466 36.5116Z" fill="black"/>
<rect x="114.92" y="4.21532" width="43" height="43" rx="6.5" transform="rotate(3.38389 114.92 4.21532)" fill="#E1F5EC"/>
<rect x="114.92" y="4.21532" width="43" height="43" rx="6.5" transform="rotate(3.38389 114.92 4.21532)" stroke="#03AB4F"/>
<path d="M141.643 20.5411L136.308 34.5306L132.634 34.3134L129.025 19.795L132.479 19.9993L134.173 28.6143C134.204 28.7631 134.255 29.0399 134.324 29.4447C134.395 29.8362 134.463 30.2543 134.531 30.6991C134.599 31.1305 134.637 31.4934 134.647 31.7878C134.704 31.4973 134.785 31.1415 134.89 30.7203C135.008 30.2999 135.119 29.899 135.222 29.5178C135.338 29.124 135.421 28.8484 135.471 28.691L138.169 20.3357L141.643 20.5411Z" fill="#03AB4F"/>
<rect x="147.913" y="6.09186" width="43" height="43" rx="6.5" transform="rotate(-7.39126 147.913 6.09186)" fill="#6363DB"/>
<rect x="147.913" y="6.09186" width="43" height="43" rx="6.5" transform="rotate(-7.39126 147.913 6.09186)" stroke="#4F4FB9"/>
<path d="M176.079 31.6811L169.633 32.5173L169.411 30.8116L171.034 29.7944L169.845 20.6312L168.017 20.0616L167.796 18.3559L174.242 17.5197L174.463 19.2255L172.84 20.2427L174.029 29.4059L175.857 29.9754L176.079 31.6811Z" fill="white"/>
<rect x="186.82" y="12.9725" width="43" height="43" rx="6.5" transform="rotate(-7.61712 186.82 12.9725)" fill="#FFCF62"/>
<rect x="186.82" y="12.9725" width="43" height="43" rx="6.5" transform="rotate(-7.61712 186.82 12.9725)" stroke="#691B0A"/>
<path d="M217.882 38.0767L214.076 38.5857L206.479 28.7054L206.4 28.716C206.457 29.0447 206.516 29.3799 206.575 29.7217C206.632 30.0504 206.691 30.3856 206.75 30.7274C206.82 31.0543 206.885 31.3886 206.944 31.7305C207.002 32.0591 207.06 32.3943 207.119 32.7362L208.01 39.3969L205.334 39.7548L203.441 25.6008L207.227 25.0944L214.791 34.8782L214.85 34.8702C214.793 34.5416 214.736 34.2196 214.681 33.9042C214.623 33.5756 214.567 33.2535 214.511 32.9381C214.467 32.6077 214.417 32.2848 214.362 31.9694C214.304 31.6408 214.247 31.3122 214.189 30.9836L213.293 24.2832L215.989 23.9227L217.882 38.0767Z" fill="black"/>
<rect x="266.655" y="13.1873" width="43" height="43" rx="6.5" transform="rotate(3.38389 266.655 13.1873)" fill="#E1F5EC"/>
<rect x="266.655" y="13.1873" width="43" height="43" rx="6.5" transform="rotate(3.38389 266.655 13.1873)" stroke="#03AB4F"/>
<path d="M290.418 43.6431L282.213 43.1579L283.056 28.9028L291.261 29.3879L291.115 31.8636L285.924 31.5567L285.739 34.6912L290.57 34.9769L290.424 37.4526L285.592 37.1669L285.375 40.8405L290.566 41.1474L290.418 43.6431Z" fill="#03AB4F"/>
<rect x="77.6781" y="1.17046" width="43" height="43" rx="6.5" transform="rotate(5.54507 77.6781 1.17046)" fill="#6363DB"/>
<rect x="77.6781" y="1.17046" width="43" height="43" rx="6.5" transform="rotate(5.54507 77.6781 1.17046)" stroke="#4F4FB9"/>
<path d="M99.4006 32.4157L92.931 31.7876L93.0972 30.0757L94.9064 29.4475L95.7993 20.2508L94.1447 19.2864L94.3109 17.5744L100.78 18.2025L100.614 19.9145L98.8051 20.5426L97.9123 29.7394L99.5668 30.7037L99.4006 32.4157Z" fill="white"/>
<rect x="227.831" y="1.04531" width="43" height="43" rx="6.5" transform="rotate(5.91764 227.831 1.04531)" fill="#6363DB"/>
<rect x="227.831" y="1.04531" width="43" height="43" rx="6.5" transform="rotate(5.91764 227.831 1.04531)" stroke="#4F4FB9"/>
<path d="M251.698 32.6745L248.694 32.3631L249.329 26.2359L243.699 25.6524L243.064 31.7796L240.06 31.4682L241.532 17.2643L244.536 17.5757L243.959 23.1458L249.589 23.7294L250.166 18.1592L253.17 18.4706L251.698 32.6745Z" fill="white"/>
</svg>
